<svg data-v-0dd9719b="" version="1.0" xmlns="http://www.w3.org/2000/svg" xmlns:xlink="http://www.w3.org/1999/xlink" width="100%" height="100%" viewBox="0 0 340.000000 250.000000" preserveAspectRatio="xMidYMid meet" color-interpolation-filters="sRGB" style="margin: auto;"> <rect data-v-0dd9719b="" x="0" y="0" width="100%" height="100%" fill="#fff" fill-opacity="1" class="background"></rect> <rect data-v-0dd9719b="" x="0" y="0" width="100%" height="100%" fill="url(#watermark)" fill-opacity="1" class="watermarklayer"></rect> <g data-v-0dd9719b="" fill="#3699ea" class="icon-text-wrapper icon-svg-group iconsvg" transform="translate(75.78990173339844,91.59395599365234)"><g class="iconsvg-imagesvg" transform="translate(0,5.083581924438477)"><g><rect fill="#3699ea" fill-opacity="0" stroke-width="2" x="0" y="0" width="60" height="56.644921310763486" class="image-rect"></rect> <svg x="0" y="0" width="60" height="56.644921310763486" filtersec="colorsb3150176513" class="image-svg-svg primary" style="overflow: visible;"><svg xmlns="http://www.w3.org/2000/svg" viewBox="-0.003525275969877839 -0.0038033658638596535 264.3553466796875 249.5738983154297"><g><g fill="#3699ea"><path d="M88.26 14.26a19 19 0 0 0 18.69 5.47l65.67-17a1.38 1.38 0 0 0-.37-2.73L87.36 1a5 5 0 0 0-3.63 8.44zM204.69 14.78a10.81 10.81 0 0 0-14-7l-65.62 23.58a5.34 5.34 0 0 0-.92 9.62l98.48 58.41a4.39 4.39 0 0 0 6.43-5.06zM103 177.28a6.6 6.6 0 0 0 9.88 5.69l99.32-57.07.09-.05a6.62 6.62 0 0 0 .08-11.44L112.1 54.94a6.42 6.42 0 0 0-9.7 5.55zM263.73 136.83a5.62 5.62 0 0 0-5.94-8.11 18.67 18.67 0 0 0-14.57 12.6l-27.67 85.05a.92.92 0 0 0 1.69.7zM258.31 113.62a4.34 4.34 0 0 0 4.7-6.3L217.6 22.4a.76.76 0 0 0-1.39.63L246 103.09a16.74 16.74 0 0 0 12.31 10.53zM75.55 180.29a5.87 5.87 0 0 0 9.24-4.84l-.53-112.18A5.5 5.5 0 0 0 75.34 59L3.2 116.43A8.46 8.46 0 0 0 3.62 130zM2.32 99.68a1.64 1.64 0 0 0 2.53 2l66.77-62a11.35 11.35 0 0 0 .6-16l-7.49-8.08A8.45 8.45 0 0 0 51.25 17zM107.85 219.33a15.23 15.23 0 0 0-17.45 5.08l-10.09 13.38a5.83 5.83 0 0 0 4.51 9.35l93.49 2.43a1.9 1.9 0 0 0 .71-3.67zM226.49 147.65a4.73 4.73 0 0 0-6.94-5.3l-95.85 55.31a5.83 5.83 0 0 0 .5 10.36l66.92 30.4a9.55 9.55 0 0 0 13.2-6.28zM74.21 215.48a11.75 11.75 0 0 0-2.06-16.19L6 146.19a2.07 2.07 0 0 0-3.08 2.67l47.64 80.84a7.54 7.54 0 0 0 12.54.68z"></path></g></g></svg></svg> <!----></g></g> <g transform="translate(67,0)"><g data-gra="path-name" fill-rule="" class="tp-name iconsvg-namesvg"><g transform="scale(1)"><g><path d="M20.8 0.58Q15.79 0.58 11.34-0.75 6.89-2.08 4.09-4.36L4.09-4.36Q2.6-5.46 2.6-7.48L2.6-7.48Q2.6-8.84 3.41-9.85 4.23-10.86 5.33-10.86L5.33-10.86Q6.5-10.86 8-9.95L8-9.95Q10.79-7.93 13.85-7.02 16.9-6.11 20.61-6.11L20.61-6.11Q25.35-6.11 27.89-7.77 30.42-9.43 30.42-12.61L30.42-12.61Q30.42-15.08 28.05-16.41 25.68-17.75 20.15-18.98L20.15-18.98Q14.43-20.21 10.86-21.84 7.28-23.46 5.46-26 3.64-28.54 3.64-32.44L3.64-32.44Q3.64-36.47 5.92-39.65 8.19-42.84 12.25-44.62 16.32-46.41 21.39-46.41L21.39-46.41Q30.68-46.41 36.53-41.47L36.53-41.47Q37.38-40.76 37.73-40.07 38.09-39.39 38.09-38.35L38.09-38.35Q38.09-36.98 37.28-35.98 36.47-34.97 35.36-34.97L35.36-34.97Q34.71-34.97 34.16-35.16 33.61-35.36 32.7-35.88L32.7-35.88Q30.03-37.83 27.53-38.77 25.03-39.72 21.39-39.72L21.39-39.72Q16.96-39.72 14.4-37.93 11.83-36.14 11.83-32.95L11.83-32.95Q11.83-30.29 14.11-28.86 16.38-27.43 21.84-26.2L21.84-26.2Q27.63-24.89 31.23-23.3 34.84-21.71 36.76-19.24 38.68-16.77 38.68-13.07L38.68-13.07Q38.68-9.04 36.43-5.95 34.19-2.86 30.13-1.14 26.07 0.58 20.8 0.58L20.8 0.58ZM81.97-6.31Q83.27-5.07 83.27-3.51L83.27-3.51Q83.27-2.02 82.13-0.88 80.99 0.26 79.43 0.26L79.43 0.26Q77.81 0.26 76.44-1.1L76.44-1.1 54.8-21.39 54.8-3.83Q54.8-1.95 53.66-0.78 52.52 0.39 50.57 0.39L50.57 0.39Q48.69 0.39 47.55-0.78 46.41-1.95 46.41-3.83L46.41-3.83 46.41-41.99Q46.41-43.88 47.55-45.01 48.69-46.15 50.57-46.15L50.57-46.15Q52.52-46.15 53.66-45.01 54.8-43.88 54.8-41.99L54.8-41.99 54.8-25.29 75.72-44.91Q76.9-46.09 78.39-46.09L78.39-46.09Q79.88-46.09 81.02-44.95 82.16-43.81 82.16-42.32L82.16-42.32Q82.16-40.82 80.86-39.59L80.86-39.59 63.38-23.6 81.97-6.31ZM117.39-44.72Q118.56-46.15 120.19-46.15L120.19-46.15Q121.68-46.15 122.85-45.01 124.02-43.88 124.02-42.32L124.02-42.32Q124.02-41.02 123.05-39.84L123.05-39.84 108.29-21.84 108.29-3.83Q108.29-1.82 107.12-0.72 105.95 0.39 104.13 0.39L104.13 0.39Q102.25 0.39 101.08-0.72 99.91-1.82 99.91-3.83L99.91-3.83 99.91-21.84 85.15-39.84Q84.18-41.02 84.18-42.32L84.18-42.32Q84.18-43.88 85.35-45.01 86.52-46.15 88.01-46.15L88.01-46.15Q89.64-46.15 90.81-44.72L90.81-44.72 104.13-28.21 117.39-44.72Z" transform="translate(-2.5999999046325684, 46.40999984741211)"></path></g> <!----> <!----> <!----> <!----> <!----> <!----> <g data-gra="path-name-1" fill="#3699ea" transform="translate(0,49.9900016784668)"><g transform="scale(0.9907)"><path d="M3.29 0.14Q2.61 0.14 2.2-0.27 1.78-0.68 1.78-1.39L1.78-1.39 1.78-15.12Q1.78-15.8 2.17-16.18 2.56-16.56 3.24-16.56L3.24-16.56 9.02-16.56Q11.67-16.56 13.15-15.23 14.63-13.9 14.63-11.51L14.63-11.51Q14.63-9.11 13.15-7.77 11.67-6.43 9.02-6.43L9.02-6.43 4.81-6.43 4.81-1.39Q4.81-0.68 4.4-0.27 3.99 0.14 3.29 0.14L3.29 0.14ZM8.64-8.76Q11.77-8.76 11.77-11.48L11.77-11.48Q11.77-14.21 8.64-14.21L8.64-14.21 4.81-14.21 4.81-8.76 8.64-8.76ZM30.53-1.9Q30.81-1.48 30.81-1.08L30.81-1.08Q30.81-0.54 30.38-0.19 29.94 0.16 29.35 0.16L29.35 0.16Q28.98 0.16 28.64-0.01 28.3-0.19 28.06-0.54L28.06-0.54 24.94-5.28Q24.47-6.04 23.94-6.34 23.41-6.65 22.57-6.65L22.57-6.65 20.27-6.65 20.27-1.39Q20.27-0.68 19.87-0.27 19.47 0.14 18.79 0.14L18.79 0.14Q18.11 0.14 17.69-0.27 17.28-0.68 17.28-1.39L17.28-1.39 17.28-15.12Q17.28-15.8 17.67-16.18 18.06-16.56 18.74-16.56L18.74-16.56 24.61-16.56Q27.43-16.56 28.9-15.3 30.36-14.04 30.36-11.67L30.36-11.67Q30.36-9.75 29.27-8.51 28.18-7.28 26.18-6.93L26.18-6.93Q26.87-6.76 27.38-6.34 27.9-5.92 28.39-5.17L28.39-5.17 30.53-1.9ZM24.19-8.97Q25.9-8.97 26.7-9.62 27.5-10.26 27.5-11.6L27.5-11.6Q27.5-12.96 26.7-13.59 25.9-14.21 24.19-14.21L24.19-14.21 20.24-14.21 20.24-8.97 24.19-8.97ZM40.86 0.21Q38.44 0.21 36.67-0.82 34.9-1.86 33.93-3.78 32.97-5.71 32.97-8.29L32.97-8.29Q32.97-10.87 33.92-12.79 34.87-14.7 36.66-15.73 38.44-16.77 40.86-16.77L40.86-16.77Q43.28-16.77 45.05-15.73 46.83-14.7 47.78-12.79 48.73-10.87 48.73-8.29L48.73-8.29Q48.73-5.71 47.77-3.78 46.8-1.86 45.03-0.82 43.26 0.21 40.86 0.21L40.86 0.21ZM40.86-2.21Q43.14-2.21 44.42-3.78 45.7-5.35 45.7-8.29L45.7-8.29Q45.7-11.23 44.42-12.79 43.14-14.35 40.86-14.35L40.86-14.35Q38.56-14.35 37.28-12.79 36-11.23 36-8.29L36-8.29Q36-5.35 37.28-3.78 38.56-2.21 40.86-2.21L40.86-2.21ZM57.51 0.21Q55.7 0.21 54.09-0.27 52.49-0.75 51.48-1.57L51.48-1.57Q50.94-1.97 50.94-2.7L50.94-2.7Q50.94-3.19 51.23-3.56 51.52-3.92 51.92-3.92L51.92-3.92Q52.34-3.92 52.88-3.59L52.88-3.59Q53.89-2.86 55-2.54 56.1-2.21 57.44-2.21L57.44-2.21Q59.15-2.21 60.07-2.81 60.99-3.41 60.99-4.56L60.99-4.56Q60.99-5.45 60.13-5.93 59.27-6.41 57.28-6.86L57.28-6.86Q55.21-7.3 53.92-7.89 52.63-8.48 51.97-9.39 51.31-10.31 51.31-11.72L51.31-11.72Q51.31-13.17 52.13-14.32 52.96-15.48 54.42-16.12 55.89-16.77 57.72-16.77L57.72-16.77Q61.08-16.77 63.19-14.98L63.19-14.98Q63.5-14.72 63.63-14.48 63.76-14.23 63.76-13.86L63.76-13.86Q63.76-13.36 63.46-13 63.17-12.63 62.77-12.63L62.77-12.63Q62.54-12.63 62.34-12.7 62.14-12.78 61.81-12.96L61.81-12.96Q60.85-13.67 59.94-14.01 59.04-14.35 57.72-14.35L57.72-14.35Q56.13-14.35 55.2-13.7 54.27-13.06 54.27-11.91L54.27-11.91Q54.27-10.94 55.09-10.43 55.91-9.91 57.89-9.46L57.89-9.46Q59.98-8.99 61.28-8.42 62.58-7.84 63.28-6.95 63.97-6.06 63.97-4.72L63.97-4.72Q63.97-3.26 63.16-2.15 62.35-1.03 60.88-0.41 59.41 0.21 57.51 0.21L57.51 0.21ZM68.27 0.14Q67.59 0.14 67.17-0.27 66.76-0.68 66.76-1.39L66.76-1.39 66.76-15.12Q66.76-15.8 67.15-16.18 67.54-16.56 68.22-16.56L68.22-16.56 74-16.56Q76.65-16.56 78.13-15.23 79.61-13.9 79.61-11.51L79.61-11.51Q79.61-9.11 78.13-7.77 76.65-6.43 74-6.43L74-6.43 69.79-6.43 69.79-1.39Q69.79-0.68 69.38-0.27 68.97 0.14 68.27 0.14L68.27 0.14ZM73.62-8.76Q76.74-8.76 76.74-11.48L76.74-11.48Q76.74-14.21 73.62-14.21L73.62-14.21 69.79-14.21 69.79-8.76 73.62-8.76ZM83.72 0Q83.04 0 82.65-0.38 82.26-0.75 82.26-1.43L82.26-1.43 82.26-15.12Q82.26-15.8 82.65-16.18 83.04-16.56 83.72-16.56L83.72-16.56 92.2-16.56Q92.88-16.56 93.25-16.25 93.63-15.95 93.63-15.38L93.63-15.38Q93.63-14.79 93.25-14.48 92.88-14.16 92.2-14.16L92.2-14.16 85.22-14.16 85.22-9.6 91.73-9.6Q92.41-9.6 92.78-9.3 93.16-8.99 93.16-8.41L93.16-8.41Q93.16-7.84 92.78-7.54 92.41-7.23 91.73-7.23L91.73-7.23 85.22-7.23 85.22-2.4 92.2-2.4Q92.88-2.4 93.25-2.08 93.63-1.76 93.63-1.17L93.63-1.17Q93.63-0.61 93.25-0.31 92.88 0 92.2 0L92.2 0 83.72 0ZM103.44 0.21Q101.05 0.21 99.25-0.82 97.46-1.86 96.49-3.78 95.53-5.71 95.53-8.29L95.53-8.29Q95.53-10.87 96.49-12.79 97.46-14.7 99.25-15.73 101.05-16.77 103.44-16.77L103.44-16.77Q104.99-16.77 106.36-16.31 107.72-15.85 108.78-14.98L108.78-14.98Q109.08-14.75 109.2-14.49 109.32-14.23 109.32-13.86L109.32-13.86Q109.32-13.34 109.03-12.99 108.75-12.63 108.35-12.63L108.35-12.63Q107.88-12.63 107.39-12.96L107.39-12.96Q106.38-13.71 105.51-14.01 104.64-14.3 103.59-14.3L103.59-14.3Q101.14-14.3 99.89-12.78 98.63-11.25 98.63-8.29L98.63-8.29Q98.63-5.31 99.89-3.78 101.14-2.25 103.59-2.25L103.59-2.25Q104.6-2.25 105.45-2.56 106.31-2.86 107.39-3.59L107.39-3.59Q107.62-3.73 107.86-3.83 108.09-3.92 108.35-3.92L108.35-3.92Q108.75-3.92 109.03-3.57 109.32-3.22 109.32-2.7L109.32-2.7Q109.32-2.35 109.2-2.08 109.08-1.81 108.78-1.57L108.78-1.57Q107.72-0.7 106.36-0.25 104.99 0.21 103.44 0.21L103.44 0.21ZM117.16 0.12Q116.45 0.12 116.04-0.29 115.63-0.7 115.63-1.39L115.63-1.39 115.63-14.07 111.36-14.07Q109.95-14.07 109.95-15.31L109.95-15.31Q109.95-16.56 111.36-16.56L111.36-16.56 122.94-16.56Q124.34-16.56 124.34-15.31L124.34-15.31Q124.34-14.07 122.94-14.07L122.94-14.07 118.66-14.07 118.66-1.39Q118.66-0.7 118.25-0.29 117.84 0.12 117.16 0.12L117.16 0.12Z" transform="translate(-1.7799999713897705, 16.770000457763672)"></path></g></g></g></g> <!----></g></g><defs v-gra="od"></defs></svg>